<svg width="266" height="160" viewBox="0 0 266 160" fill="none" xmlns="http://www.w3.org/2000/svg">
<path d="M262.975 112.11C260.207 112.387 257.992 112.664 256.055 112.664C253.84 112.664 251.902 112.387 250.795 111.557C249.688 110.726 248.581 109.896 248.027 108.512C247.473 107.128 247.197 104.36 247.197 99.9305V46.7819H262.975V34.8788H247.473V2.76816L231.972 11.9031V34.602H220.622V46.5051H231.972V99.1001C231.972 108.235 232.525 114.325 233.909 117.37C235.294 120.138 237.231 122.629 240.553 124.29C243.598 125.951 248.027 127.058 253.563 127.058C256.885 127.058 261.037 126.505 265.19 125.674L262.975 112.11ZM205.121 125.951H220.622V0H205.121V125.951ZM134.809 71.4185C135.363 63.3908 138.131 57.0241 142.837 52.3182C147.82 47.6123 153.633 45.121 160.83 45.121C168.581 45.121 175.224 48.166 179.93 53.9791C183.252 57.8545 185.19 63.6676 185.743 71.1417H134.809V71.4185ZM185.743 96.6087C183.252 103.252 180.207 107.958 176.055 110.726C171.903 113.771 167.197 115.155 161.384 115.155C153.633 115.155 147.266 112.387 142.283 107.128C137.024 101.868 134.256 94.1174 133.702 84.152H202.076C202.076 82.2143 202.076 80.8302 202.076 79.9998C202.076 65.0517 198.2 53.1486 190.449 44.8442C182.698 36.5397 172.733 32.3875 160.553 32.3875C147.82 32.3875 137.577 36.5397 129.55 45.121C121.522 53.7023 117.647 65.6054 117.647 80.8302C117.647 95.7783 121.522 107.128 129.55 115.432C137.301 123.737 148.096 127.612 161.384 127.612C171.903 127.612 180.761 125.121 187.681 119.861C194.602 114.602 199.307 107.405 201.799 97.9928L185.743 96.6087ZM27.9584 125.951L0 34.602H16.0553L30.7266 87.197L36.2629 106.851C36.5397 105.744 38.2006 99.6537 40.9688 88.0274L55.3632 34.602H71.4185L85.2593 87.4738L89.9652 104.913L95.2247 87.197L111.003 34.602H126.228L96.8856 125.951H80.8302L66.4358 71.4185L62.8372 55.9168L44.2905 125.951H27.9584Z" fill="white"/>
<path d="M32.3875 151.142C32.9411 151.142 33.218 151.418 33.4948 151.418C33.7716 151.418 34.0484 151.418 34.3252 151.418C35.1557 151.418 35.9861 151.142 36.5397 150.311C37.0934 149.758 37.3702 148.65 37.3702 147.82C37.3702 146.989 37.0934 146.436 36.8166 145.882C36.5397 145.328 35.9861 144.775 35.4325 144.498C35.4325 143.944 34.8789 143.944 34.0484 143.944C33.4948 143.944 32.9411 143.944 32.3875 144.221V151.142V151.142ZM32.3875 151.972V156.955C32.3875 158.062 32.3875 158.616 32.6643 158.892C32.9411 159.169 33.4948 159.446 34.0484 159.446H34.602V160H27.6816V159.446H28.2353C29.0657 159.446 29.3425 159.169 29.8962 158.616C30.173 158.339 30.173 157.785 30.173 156.678V145.605C30.173 144.498 30.173 143.944 29.8962 143.668C29.6194 143.391 29.0657 143.114 28.5121 143.114H27.6816V142.56H34.0484C35.7093 142.56 36.8166 142.837 37.647 143.114C38.4775 143.391 39.3079 143.944 39.8615 144.775C40.4152 145.605 40.692 146.436 40.692 147.543C40.692 148.927 40.1384 150.034 39.3079 150.865C38.4775 151.695 37.0934 152.249 35.4325 152.249C35.1557 152.249 34.602 152.249 34.0484 152.249C33.4948 152.249 32.9411 151.972 32.3875 151.972Z" fill="white"/>
<path d="M90.517 159.445V159.999H83.043V159.445H83.5966C84.4271 159.445 84.7039 159.168 85.2575 158.892C85.5343 158.615 85.5343 158.061 85.5343 156.954V145.881C85.5343 145.051 85.5343 144.497 85.2575 144.22C85.2575 143.943 84.9807 143.943 84.7039 143.667C84.427 143.39 83.8734 143.39 83.5966 143.39H83.043V142.836H90.517V143.39H89.9634C89.1329 143.39 88.8561 143.667 88.3025 143.943C88.0257 144.22 88.0257 144.774 88.0257 145.881V156.954C88.0257 157.784 88.0257 158.338 88.3025 158.615C88.3025 158.892 88.5793 158.892 88.8561 159.168C89.1329 159.445 89.6865 159.445 89.9634 159.445H90.517Z" fill="white"/>
<path d="M142.561 150.588L146.16 156.125C147.267 157.509 147.821 158.616 148.374 158.893C148.928 159.17 149.481 159.446 150.312 159.446V160H142.838V159.446C143.392 159.446 143.668 159.446 143.945 159.17C144.222 159.17 144.222 158.893 144.499 158.893C144.499 158.616 144.776 158.616 144.776 158.339C144.776 158.062 144.776 158.062 144.776 157.786C144.776 157.509 144.499 157.232 143.945 156.678L141.177 152.249L137.578 156.955C137.302 157.509 137.025 157.786 137.025 158.062C137.025 158.339 137.025 158.339 137.025 158.616C137.025 158.893 137.025 159.17 137.302 159.17C137.578 159.446 137.855 159.446 138.686 159.446V160H132.596V159.446C133.149 159.446 133.426 159.446 133.703 159.17C134.257 158.893 134.81 158.616 135.087 158.339C135.641 158.062 136.194 157.509 136.748 156.678L140.9 151.696L137.025 146.713C136.194 145.329 135.364 144.498 134.81 144.222C134.257 143.668 133.426 143.668 132.596 143.668V143.114H140.623V143.668C140.07 143.668 139.516 143.668 139.239 143.945C138.962 144.222 138.962 144.222 138.962 144.498C138.962 144.775 139.239 145.329 139.516 145.882L142.007 149.758L145.052 145.882C145.329 145.329 145.606 145.052 145.606 145.052C145.606 144.775 145.606 144.775 145.606 144.498C145.606 144.222 145.606 144.222 145.329 143.945C145.329 143.668 145.052 143.668 144.776 143.668C144.499 143.668 144.222 143.668 143.668 143.668V143.114H149.758V143.668C149.205 143.668 148.928 143.668 148.651 143.945C148.097 144.222 147.821 144.498 147.267 144.775C146.99 145.052 146.436 145.606 145.606 146.713L142.561 150.588Z" fill="white"/>
<path d="M196.817 143.667V150.311H200.692C201.799 150.311 202.353 150.034 202.63 149.757C203.183 149.481 203.183 148.65 203.46 147.82H204.014V153.633H203.46C203.46 152.802 203.183 152.249 203.183 151.972C202.907 151.695 202.907 151.418 202.353 151.141C202.076 150.865 201.523 150.865 200.692 150.865H196.817V156.401C196.817 157.231 196.817 157.508 196.817 157.785C196.817 158.062 197.093 158.062 197.093 158.062C197.37 158.062 197.647 158.339 197.924 158.339H200.692C201.523 158.339 202.353 158.339 202.907 158.062C203.46 158.062 203.737 157.785 204.291 157.231C204.844 156.678 205.398 155.847 205.952 154.74H206.505L205.121 158.892H191.834V158.339H192.388C192.664 158.339 193.218 158.339 193.495 158.062C193.772 158.062 194.049 157.785 194.049 157.508C194.049 157.231 194.325 156.678 194.325 155.847V144.775C194.325 143.667 194.325 143.114 194.049 142.837C193.772 142.56 193.218 142.283 192.664 142.283H192.111V141.73H205.398L205.675 145.605H204.844C204.568 144.775 204.568 144.221 204.291 143.667C204.014 143.391 203.737 143.114 203.46 142.837C203.183 142.837 202.63 142.56 201.799 142.56H196.817V143.667V143.667Z" fill="white"/>
<path d="M262.975 155.294H263.529L262.145 160H248.857V159.446H249.411C250.241 159.446 250.795 159.169 251.072 158.616C251.349 158.339 251.349 157.785 251.349 156.678V145.605C251.349 144.498 251.349 143.944 251.072 143.668C250.795 143.391 250.241 143.114 249.688 143.114H249.134V142.56H256.885V143.114C256.055 143.114 255.224 143.114 254.947 143.391C254.671 143.668 254.394 143.668 254.117 143.944C253.84 144.221 253.84 144.775 253.84 145.882V156.678C253.84 157.508 253.84 157.785 254.117 158.062C254.117 158.339 254.394 158.339 254.671 158.339C254.947 158.339 255.501 158.339 256.608 158.339H257.439C258.823 158.339 259.653 158.339 260.207 158.062C260.76 157.785 261.314 157.508 261.591 156.955C262.145 156.955 262.698 156.124 262.975 155.294Z" fill="white"/>
</svg>
